<?xml version="1.0" encoding="UTF-8" standalone="no"?>
<!-- Created with Inkscape (http://www.inkscape.org/) -->

<svg
   xmlns:dc="http://purl.org/dc/elements/1.1/"
   xmlns:cc="http://creativecommons.org/ns#"
   xmlns:rdf="http://www.w3.org/1999/02/22-rdf-syntax-ns#"
   xmlns:svg="http://www.w3.org/2000/svg"
   xmlns="http://www.w3.org/2000/svg"
   xmlns:sodipodi="http://sodipodi.sourceforge.net/DTD/sodipodi-0.dtd"
   xmlns:inkscape="http://www.inkscape.org/namespaces/inkscape"
   width="38.6875mm"
   height="13mm"
   viewBox="0 0 679.2857 177.53259"
   id="svg4701"
   version="1.1"
   inkscape:version="0.91 r13725"
   sodipodi:docname="TMSfirstLogo.svg">
  <defs
     id="defs4703" />
  <sodipodi:namedview
     id="base"
     pagecolor="#ffffff"
     bordercolor="#666666"
     borderopacity="1.0"
     inkscape:pageopacity="0.0"
     inkscape:pageshadow="2"
     inkscape:zoom="0.24"
     inkscape:cx="304.11119"
     inkscape:cy="53.227946"
     inkscape:document-units="px"
     inkscape:current-layer="g4912"
     showgrid="false"
     inkscape:window-width="1280"
     inkscape:window-height="687"
     inkscape:window-x="0"
     inkscape:window-y="1"
     inkscape:window-maximized="1"
     fit-margin-top="0"
     fit-margin-left="0"
     fit-margin-right="0"
     fit-margin-bottom="0" />
  <metadata
     id="metadata4706">
    <rdf:RDF>
      <cc:Work
         rdf:about="">
        <dc:format>image/svg+xml</dc:format>
        <dc:type
           rdf:resource="http://purl.org/dc/dcmitype/StillImage" />
        <dc:title></dc:title>
      </cc:Work>
    </rdf:RDF>
  </metadata>
  <g
     inkscape:label="Layer 1"
     inkscape:groupmode="layer"
     id="layer1"
     transform="translate(-20.357147,-24.337754)">
    <g
       id="g4811"
       transform="matrix(0.06220565,0,0,-0.06220565,20.357147,194.41456)"
       style="fill:#295700;fill-opacity:0;stroke:none">
      <path
         id="path4813"
         d="m 6715,2725 c -182,-29 -280,-95 -362,-245 -41,-73 -60,-134 -102,-330 l -36,-165 -130,-3 -130,-3 -21,-94 -21,-95 130,0 c 129,0 129,0 124,-22 C 6142,1670 5790,23 5790,8 c 0,-5 51,-8 113,-8 l 112,0 163,763 c 89,419 175,822 190,895 l 27,132 177,0 c 160,0 177,2 182,18 9,29 36,153 36,163 0,5 -73,9 -176,9 -162,0 -175,1 -170,18 3,9 21,86 40,169 19,84 47,178 62,210 34,72 97,135 150,151 56,16 140,15 200,-3 27,-8 52,-15 56,-15 7,0 22,70 34,151 l 6,46 -59,11 c -105,19 -137,21 -218,7 z"
         inkscape:connector-curvature="0"
         style="fill:#295700;fill-opacity:0" />
      <path
         id="path4815"
         d="m 7240,2652 c -143,-72 -80,-295 79,-279 109,11 170,121 119,216 -40,75 -123,101 -198,63 z"
         inkscape:connector-curvature="0"
         style="fill:#295700;fill-opacity:0" />
      <path
         id="path4817"
         d="m 4961,2609 c -369,-45 -601,-259 -601,-551 0,-72 26,-176 59,-233 73,-128 172,-204 468,-359 256,-134 314,-170 377,-232 77,-75 101,-130 101,-229 -1,-226 -173,-339 -490,-322 -170,9 -353,66 -469,147 l -46,31 0,-140 0,-140 32,-17 c 139,-72 425,-116 616,-94 383,42 581,206 608,502 15,168 -34,288 -170,423 -102,100 -153,133 -447,285 -320,166 -382,231 -382,400 0,88 15,130 70,190 134,149 503,173 761,50 l 82,-39 0,134 0,134 -66,21 c -36,11 -94,24 -127,29 -96,15 -294,21 -376,10 z"
         inkscape:connector-curvature="0"
         style="fill:#295700;fill-opacity:0" />
      <path
         id="path4819"
         d="m 0,2475 0,-105 300,0 300,0 0,-935 0,-935 125,0 125,0 0,933 0,932 297,2 298,2 3,106 3,105 -726,0 -725,0 0,-105 z"
         inkscape:connector-curvature="0"
         style="fill:#295700;fill-opacity:0" />
      <path
         id="path4821"
         d="m 1780,1540 0,-1040 115,0 116,0 -3,899 c -2,495 -2,898 -1,897 2,-1 14,-42 28,-92 23,-76 143,-351 673,-1537 l 75,-168 60,3 59,3 364,819 c 202,455 374,853 386,897 11,44 23,77 25,75 3,-2 0,-92 -6,-199 -6,-108 -11,-511 -11,-896 l 0,-701 120,0 120,0 0,1040 0,1041 -151,-3 -151,-3 -329,-730 c -181,-401 -350,-783 -375,-848 -26,-64 -49,-117 -53,-117 -3,0 -20,40 -38,88 -18,48 -183,429 -367,847 l -334,760 -161,3 -161,2 0,-1040 z"
         inkscape:connector-curvature="0"
         style="fill:#295700;fill-opacity:0" />
      <path
         id="path4823"
         d="m 10418,2382 -108,-36 0,-183 0,-183 -130,0 -130,0 0,-95 0,-95 130,0 130,0 0,-472 c 1,-503 7,-583 49,-666 47,-93 121,-148 229,-171 99,-21 236,-9 305,25 26,14 27,16 27,104 0,50 -2,90 -4,90 -2,0 -23,-9 -47,-20 -91,-41 -227,-19 -277,45 -49,62 -52,95 -52,597 l 0,468 190,0 190,0 0,95 0,95 -190,0 -190,0 0,220 c 0,121 -3,220 -7,219 -5,0 -56,-17 -115,-37 z"
         inkscape:connector-curvature="0"
         style="fill:#295700;fill-opacity:0" />
      <path
         id="path4825"
         d="m 8625,2049 c 8,-23 15,-44 15,-46 0,-3 -22,-2 -49,2 -59,8 -150,-8 -210,-37 -74,-36 -147,-116 -194,-215 l -42,-88 -3,158 -3,157 -114,0 -115,0 0,-740 0,-740 114,0 115,0 4,463 c 4,505 4,506 67,633 41,83 131,168 202,189 78,23 188,18 188,-8 0,-6 -15,-26 -32,-45 -39,-41 -51,-44 179,41 l 173,63 -143,120 c -176,149 -170,145 -152,93 z"
         inkscape:connector-curvature="0"
         style="fill:#295700;fill-opacity:0" />
      <path
         id="path4827"
         d="m 9260,1995 c -141,-32 -287,-131 -338,-231 -29,-57 -45,-149 -38,-214 12,-102 34,-150 101,-216 66,-67 150,-114 327,-185 147,-58 214,-96 258,-147 43,-49 55,-88 48,-162 -10,-100 -96,-165 -238,-178 -158,-16 -283,10 -427,88 l -73,39 0,-118 0,-119 48,-20 c 107,-46 170,-57 337,-57 181,0 242,12 361,70 51,25 88,53 127,95 73,78 97,142 97,255 0,211 -95,306 -445,445 -71,28 -152,66 -179,83 -128,82 -151,222 -52,322 60,60 124,80 251,79 116,0 200,-19 298,-67 l 68,-34 -3,116 -3,115 -75,24 c -63,21 -99,25 -230,28 -110,3 -174,-1 -220,-11 z"
         inkscape:connector-curvature="0"
         style="fill:#295700;fill-opacity:0" />
      <path
         id="path4829"
         d="m 7190,1240 0,-740 115,0 115,0 0,740 0,740 -115,0 -115,0 0,-740 z"
         inkscape:connector-curvature="0"
         style="fill:#295700;fill-opacity:0" />
    </g>
    <g
       id="g4912"
       transform="matrix(0.06110094,0,0,-0.06110094,24.166664,201.87034)"
       style="fill:#000000;stroke:none">
      <path
         id="path4914"
         d="m 6715,2725 c -182,-29 -280,-95 -362,-245 -41,-73 -60,-134 -102,-330 l -36,-165 -130,-3 -130,-3 -21,-94 -21,-95 130,0 c 129,0 129,0 124,-22 C 6142,1670 5790,23 5790,8 c 0,-5 51,-8 113,-8 l 112,0 163,763 c 89,419 175,822 190,895 l 27,132 177,0 c 160,0 177,2 182,18 9,29 36,153 36,163 0,5 -73,9 -176,9 -162,0 -175,1 -170,18 3,9 21,86 40,169 19,84 47,178 62,210 34,72 97,135 150,151 56,16 140,15 200,-3 27,-8 52,-15 56,-15 7,0 22,70 34,151 l 6,46 -59,11 c -105,19 -137,21 -218,7 z"
         inkscape:connector-curvature="0"
         style="fill:#0098da;fill-opacity:1" />
      <path
         id="path4916"
         d="m 7240,2652 c -143,-72 -80,-295 79,-279 109,11 170,121 119,216 -40,75 -123,101 -198,63 z"
         inkscape:connector-curvature="0"
         style="fill:#0098da;fill-opacity:1" />
      <path
         id="path4918"
         d="m 4961,2609 c -369,-45 -601,-259 -601,-551 0,-72 26,-176 59,-233 73,-128 172,-204 468,-359 256,-134 314,-170 377,-232 77,-75 101,-130 101,-229 -1,-226 -173,-339 -490,-322 -170,9 -353,66 -469,147 l -46,31 0,-140 0,-140 32,-17 c 139,-72 425,-116 616,-94 383,42 581,206 608,502 15,168 -34,288 -170,423 -102,100 -153,133 -447,285 -320,166 -382,231 -382,400 0,88 15,130 70,190 134,149 503,173 761,50 l 82,-39 0,134 0,134 -66,21 c -36,11 -94,24 -127,29 -96,15 -294,21 -376,10 z"
         inkscape:connector-curvature="0"
         style="fill:#2957a4;fill-opacity:1" />
      <path
         id="path4920"
         d="m 0,2475 0,-105 300,0 300,0 0,-935 0,-935 125,0 125,0 0,933 0,932 297,2 298,2 3,106 3,105 -726,0 -725,0 0,-105 z"
         inkscape:connector-curvature="0"
         style="fill:#2957a4;fill-opacity:1" />
      <path
         id="path4922"
         d="m 1780,1540 0,-1040 115,0 116,0 -3,899 c -2,495 -2,898 -1,897 2,-1 14,-42 28,-92 23,-76 143,-351 673,-1537 l 75,-168 60,3 59,3 364,819 c 202,455 374,853 386,897 11,44 23,77 25,75 3,-2 0,-92 -6,-199 -6,-108 -11,-511 -11,-896 l 0,-701 120,0 120,0 0,1040 0,1041 -151,-3 -151,-3 -329,-730 c -181,-401 -350,-783 -375,-848 -26,-64 -49,-117 -53,-117 -3,0 -20,40 -38,88 -18,48 -183,429 -367,847 l -334,760 -161,3 -161,2 0,-1040 z"
         inkscape:connector-curvature="0"
         style="fill:#2957a4;fill-opacity:1" />
      <path
         id="path4924"
         d="m 10418,2382 -108,-36 0,-183 0,-183 -130,0 -130,0 0,-95 0,-95 130,0 130,0 0,-472 c 1,-503 7,-583 49,-666 47,-93 121,-148 229,-171 99,-21 236,-9 305,25 26,14 27,16 27,104 0,50 -2,90 -4,90 -2,0 -23,-9 -47,-20 -91,-41 -227,-19 -277,45 -49,62 -52,95 -52,597 l 0,468 190,0 190,0 0,95 0,95 -190,0 -190,0 0,220 c 0,121 -3,220 -7,219 -5,0 -56,-17 -115,-37 z"
         inkscape:connector-curvature="0"
         style="fill:#0098da;fill-opacity:1" />
      <path
         id="path4926"
         d="m 8625,2049 c 8,-23 15,-44 15,-46 0,-3 -22,-2 -49,2 -59,8 -150,-8 -210,-37 -74,-36 -147,-116 -194,-215 l -42,-88 -3,158 -3,157 -114,0 -115,0 0,-740 0,-740 114,0 115,0 4,463 c 4,505 4,506 67,633 41,83 131,168 202,189 78,23 188,18 188,-8 0,-6 -15,-26 -32,-45 -39,-41 -51,-44 179,41 l 173,63 -143,120 c -176,149 -170,145 -152,93 z"
         inkscape:connector-curvature="0"
         style="fill:#0098da;fill-opacity:1" />
      <path
         id="path4928"
         d="m 9260,1995 c -141,-32 -287,-131 -338,-231 -29,-57 -45,-149 -38,-214 12,-102 34,-150 101,-216 66,-67 150,-114 327,-185 147,-58 214,-96 258,-147 43,-49 55,-88 48,-162 -10,-100 -96,-165 -238,-178 -158,-16 -283,10 -427,88 l -73,39 0,-118 0,-119 48,-20 c 107,-46 170,-57 337,-57 181,0 242,12 361,70 51,25 88,53 127,95 73,78 97,142 97,255 0,211 -95,306 -445,445 -71,28 -152,66 -179,83 -128,82 -151,222 -52,322 60,60 124,80 251,79 116,0 200,-19 298,-67 l 68,-34 -3,116 -3,115 -75,24 c -63,21 -99,25 -230,28 -110,3 -174,-1 -220,-11 z"
         inkscape:connector-curvature="0"
         style="fill:#0098da;fill-opacity:1" />
      <path
         id="path4930"
         d="m 7190,1240 0,-740 115,0 115,0 0,740 0,740 -115,0 -115,0 0,-740 z"
         inkscape:connector-curvature="0"
         style="fill:#0098da;fill-opacity:1" />
    </g>
  </g>
</svg>
